<?xml version="1.0" standalone="no"?>
<!DOCTYPE svg PUBLIC "-//W3C//DTD SVG 20010904//EN"
 "http://www.w3.org/TR/2001/REC-SVG-20010904/DTD/svg10.dtd">
<svg version="1.0" xmlns="http://www.w3.org/2000/svg"
 width="500.000000pt" height="500.000000pt" viewBox="0 0 500.000000 500.000000"
 preserveAspectRatio="xMidYMid meet">
<metadata>
Created by potrace 1.16, written by Peter Selinger 2001-2019
</metadata>
<g transform="translate(0.000000,500.000000) scale(0.100000,-0.100000)"
fill="#000000" stroke="none">
<path d="M1690 3590 c-79 -7 -279 -50 -349 -75 -75 -26 -177 -85 -245 -141
-136 -112 -229 -265 -271 -447 -22 -97 -155 -1183 -155 -1270 0 -188 57 -337
173 -451 82 -81 157 -125 272 -158 66 -18 105 -22 225 -22 131 0 158 3 275 32
72 18 159 44 195 58 239 93 411 284 484 536 35 121 43 200 22 217 -12 10 -89
16 -307 24 -256 8 -292 7 -307 -6 -9 -9 -33 -17 -52 -19 -35 -3 -35 -4 -42
-61 -7 -54 0 -89 29 -137 7 -12 -57 -40 -89 -40 -37 0 -70 27 -82 67 -6 18
120 1104 141 1223 3 20 20 49 39 68 25 25 40 32 72 32 46 0 58 -11 42 -40 -11
-20 -44 -249 -37 -256 2 -2 127 1 277 6 217 8 277 13 290 25 10 9 37 15 68 15
92 0 107 35 100 233 -6 144 -28 224 -87 313 -108 164 -264 252 -486 274 -55 5
-104 9 -110 8 -5 0 -44 -4 -85 -8z"/>
<path d="M3580 3590 c-88 -9 -280 -51 -365 -80 -245 -84 -437 -299 -495 -555
-30 -133 -160 -1208 -160 -1324 0 -113 25 -225 67 -304 44 -83 155 -188 243
-230 117 -56 193 -71 355 -71 153 0 267 20 440 75 252 81 438 266 515 514 14
44 40 214 71 455 l49 385 -21 17 c-19 16 -52 18 -354 18 -302 0 -335 -2 -354
-17 -19 -16 -25 -44 -48 -241 -19 -154 -24 -228 -17 -239 6 -10 6 -48 -2 -114
-12 -101 -7 -156 17 -185 11 -14 9 -20 -14 -40 -33 -28 -82 -31 -114 -9 -50
35 -49 52 27 673 39 326 77 595 86 619 20 55 56 83 105 83 47 0 53 -9 35 -51
-7 -19 -19 -79 -25 -134 -6 -55 -14 -117 -17 -138 l-6 -38 282 3 c251 3 283 5
294 20 9 12 30 18 77 20 79 4 83 9 99 166 25 240 -24 406 -160 542 -105 105
-238 163 -415 180 -55 5 -104 9 -110 8 -5 0 -44 -4 -85 -8z"/>
</g>
</svg>
